<?xml version="1.0" encoding="UTF-8" standalone="no"?>
<!-- Created with Inkscape (http://www.inkscape.org/) -->

<svg
   xmlns:dc="http://purl.org/dc/elements/1.1/"
   xmlns:cc="http://creativecommons.org/ns#"
   xmlns:rdf="http://www.w3.org/1999/02/22-rdf-syntax-ns#"
   xmlns:svg="http://www.w3.org/2000/svg"
   xmlns="http://www.w3.org/2000/svg"
   xmlns:sodipodi="http://sodipodi.sourceforge.net/DTD/sodipodi-0.dtd"
   xmlns:inkscape="http://www.inkscape.org/namespaces/inkscape"
   width="34.336029mm"
   height="37.782497mm"
   viewBox="0 0 121.6631 133.87499"
   id="svg4162"
   version="1.1"
   inkscape:version="0.91 r13725"
   sodipodi:docname="siridb-prompt-logo.svg">
  <defs
     id="defs4164" />
  <sodipodi:namedview
     id="base"
     pagecolor="#ffffff"
     bordercolor="#666666"
     borderopacity="1.0"
     inkscape:pageopacity="0.0"
     inkscape:pageshadow="2"
     inkscape:zoom="0.98994949"
     inkscape:cx="-194.95624"
     inkscape:cy="243.49682"
     inkscape:document-units="px"
     inkscape:current-layer="layer1"
     showgrid="false"
     showborder="false"
     inkscape:window-width="1920"
     inkscape:window-height="1031"
     inkscape:window-x="0"
     inkscape:window-y="0"
     inkscape:window-maximized="1"
     fit-margin-top="0"
     fit-margin-left="0"
     fit-margin-right="0"
     fit-margin-bottom="0"
     showguides="false" />
  <metadata
     id="metadata4167">
    <rdf:RDF>
      <cc:Work
         rdf:about="">
        <dc:format>image/svg+xml</dc:format>
        <dc:type
           rdf:resource="http://purl.org/dc/dcmitype/StillImage" />
        <dc:title />
      </cc:Work>
    </rdf:RDF>
  </metadata>
  <g
     inkscape:label="Layer 1"
     inkscape:groupmode="layer"
     id="layer1"
     transform="translate(-302.0256,-436.85329)">
    <path
       style="display:inline;fill:#316376;fill-opacity:1;stroke:#00002a;stroke-width:0;stroke-linecap:butt;stroke-linejoin:miter;stroke-miterlimit:0;stroke-dasharray:none;stroke-opacity:0.94117647"
       d="m 535.09418,475.23908 c -21.63842,0 -30.02791,9.77149 -30.02791,9.77149 l 0,9.78486 c 0,0 8.68775,9.78485 30.02791,9.78485 21.35807,0 30.01249,-9.78485 30.01249,-9.78485 l 0,-9.78486 c 0,0 -8.72684,-9.77149 -30.01249,-9.77149 z m 9.77797,1.4303 -2.43678,7.88671 c 0.17995,0.16633 0.31655,0.34144 0.41641,0.52132 0.003,0.005 0.0125,0.008 0.0154,0.0133 l 14.11173,6.96436 -19.59946,-2.6039 c -1.14137,0.0723 -1.18287,0.0775 -2.5629,0.0775 -4.53126,0 -8.19447,-1.47116 -8.20485,-3.43518 -0.008,-1.59012 2.61879,-2.99339 6.15364,-3.32866 z"
       id="path4037"
       inkscape:connector-curvature="0"
       sodipodi:nodetypes="sccsccsccccccsscc"
       inkscape:export-filename="/home/joente/Pictures/path4051.png"
       inkscape:export-xdpi="23.66"
       inkscape:export-ydpi="23.66" />
    <path
       sodipodi:nodetypes="ccsccsc"
       inkscape:connector-curvature="0"
       id="path4039"
       d="m 505.07149,500.85085 0,10.63825 c 0,0 8.67912,9.78273 30.01928,9.78273 21.35807,0 30.01928,-9.78273 30.01928,-9.78273 l 0,-10.63825 c 0,0 -8.73363,9.0384 -30.01928,9.0384 -21.63842,0 -30.01928,-9.0384 -30.01928,-9.0384 z"
       style="display:inline;fill:#316376;fill-opacity:1;stroke:#00002a;stroke-width:0;stroke-linecap:butt;stroke-linejoin:miter;stroke-miterlimit:0;stroke-dasharray:none;stroke-opacity:0.94117647"
       inkscape:export-filename="/home/joente/Pictures/path4051.png"
       inkscape:export-xdpi="23.66"
       inkscape:export-ydpi="23.66" />
    <path
       style="display:inline;fill:#316376;fill-opacity:1;stroke:none"
       d="m 505.07149,516.97109 0,10.63824 c 0,0 8.67912,9.78274 30.01928,9.78274 21.35807,0 30.01928,-9.78274 30.01928,-9.78274 l 0,-10.63824 c 0,0 -8.73363,9.0384 -30.01928,9.0384 -21.63842,0 -30.01928,-9.0384 -30.01928,-9.0384 z"
       id="path4041"
       inkscape:connector-curvature="0"
       sodipodi:nodetypes="ccsccsc"
       inkscape:export-filename="/home/joente/Pictures/path4051.png"
       inkscape:export-xdpi="23.66"
       inkscape:export-ydpi="23.66" />
    <path
       inkscape:connector-curvature="0"
       id="path4043"
       d="m 565.10667,485.39499 c -5.04074,0.38137 -9.87222,1.613 -14.38933,3.56908 l 6.26159,3.0903 -9.91676,-1.32027 -0.0154,0 c -6.11218,3.31331 -11.50384,8.0196 -15.85449,13.73949 1.25026,0.0734 2.55131,0.10156 3.90193,0.10156 21.35806,0 30.01249,-9.77869 30.01249,-9.77869 l 0,-9.40147 z"
       style="display:inline;fill:#ffffff;fill-opacity:0.10588235;stroke:none"
       inkscape:export-filename="/home/joente/Pictures/path4051.png"
       inkscape:export-xdpi="23.66"
       inkscape:export-ydpi="23.66" />
    <path
       inkscape:connector-curvature="0"
       id="path4049"
       d="m 565.10667,516.96536 c 0,0 -8.72684,9.03875 -30.01249,9.03875 -5.28144,0 -9.76834,-0.53523 -13.54109,-1.34928 -0.72634,2.89534 -1.24328,5.90149 -1.52684,8.98072 -0.0569,0.61773 -0.10116,1.22779 -0.13881,1.84257 4.10772,1.12851 9.15079,1.91512 15.20674,1.91512 21.35807,0 30.01249,-9.77869 30.01249,-9.77869 l 0,-10.64919 z"
       style="display:inline;fill:#ffffff;fill-opacity:0.10588235;stroke:none"
       inkscape:export-filename="/home/joente/Pictures/path4051.png"
       inkscape:export-xdpi="23.66"
       inkscape:export-ydpi="23.66" />
    <path
       inkscape:connector-curvature="0"
       id="path4051"
       d="m 565.10667,500.84648 c 0,0 -8.72684,9.03876 -30.01249,9.03876 -2.63432,0 -5.07563,-0.1274 -7.32576,-0.36271 -1.95467,3.28309 -3.58191,6.81845 -4.85814,10.56215 3.48761,0.72586 7.53645,1.18969 12.1839,1.18969 21.35807,0 30.01249,-9.77869 30.01249,-9.77869 l 0,-10.6492 z"
       style="display:inline;fill:#ffffff;fill-opacity:0.10588235;stroke:none"
       inkscape:export-xdpi="23.66"
       inkscape:export-ydpi="23.66" />
    <path
       style="fill:#477485;fill-opacity:1;fill-rule:evenodd;stroke:#477485;stroke-width:1.20933318;stroke-linecap:butt;stroke-linejoin:miter;stroke-miterlimit:4;stroke-dasharray:none;stroke-opacity:1"
       d="m 442.74993,457.84155 0,23.47964 31.20967,31.51216 -28.79445,28.42273 0,25.95119 53.43689,-54.68287 z"
       id="path4282"
       inkscape:connector-curvature="0"
       sodipodi:nodetypes="ccccccc" />
    <rect
       style="fill:#316376;fill-opacity:1;fill-rule:nonzero;stroke:#477485;stroke-width:0.85755301;stroke-linejoin:miter;stroke-miterlimit:4;stroke-dasharray:none;stroke-dashoffset:0;stroke-opacity:1"
       id="rect4288"
       width="21.936914"
       height="25.142416"
       x="489.59793"
       y="540.54504"
       rx="10.968457"
       ry="4.3101268" />
    <rect
       style="fill:#316376;fill-opacity:1;fill-rule:nonzero;stroke:#477485;stroke-width:0.85755301;stroke-linejoin:miter;stroke-miterlimit:4;stroke-dasharray:none;stroke-dashoffset:0;stroke-opacity:1"
       id="rect4288-6"
       width="21.936916"
       height="25.142416"
       x="517.03387"
       y="540.54254"
       rx="10.968458"
       ry="4.3101268" />
    <rect
       style="fill:#316376;fill-opacity:1;fill-rule:nonzero;stroke:#477485;stroke-width:0.85755301;stroke-linejoin:miter;stroke-miterlimit:4;stroke-dasharray:none;stroke-dashoffset:0;stroke-opacity:1"
       id="rect4288-6-7"
       width="21.936918"
       height="25.142416"
       x="544.22565"
       y="540.54254"
       rx="10.968459"
       ry="4.3101268" />
  </g>
</svg>
